<mxfile host="drawio-plugin" modified="2022-02-28T21:08:56.614Z" agent="5.0 (X11; Linux x86_64) AppleWebKit/537.36 (KHTML, like Gecko) Chrome/89.0.4389.114 Safari/537.36" etag="-GvkBxqBczREGxAwlqug" version="15.5.4" type="embed"><diagram id="e1hJ0vjvRPFrp0CyKhk_" name="types"><mxGraphModel dx="1098" dy="851" grid="1" gridSize="10" guides="1" tooltips="1" connect="1" arrows="1" fold="1" page="1" pageScale="1" pageWidth="1600" pageHeight="900" background="#3333FF" math="0" shadow="1"><root><mxCell id="0"/><mxCell id="1" parent="0"/><mxCell id="eucJpfDko_vi7RkiYYHx-15" style="edgeStyle=orthogonalEdgeStyle;rounded=1;orthogonalLoop=1;jettySize=auto;html=1;strokeColor=#FFFFFF;" parent="1" source="q9bZN0hqR5tmcUif_ThB-1" target="eucJpfDko_vi7RkiYYHx-4" edge="1"><mxGeometry relative="1" as="geometry"/></mxCell><mxCell id="eucJpfDko_vi7RkiYYHx-16" style="edgeStyle=orthogonalEdgeStyle;rounded=1;orthogonalLoop=1;jettySize=auto;html=1;strokeColor=#FFFFFF;" parent="1" source="q9bZN0hqR5tmcUif_ThB-1" target="q9bZN0hqR5tmcUif_ThB-2" edge="1"><mxGeometry relative="1" as="geometry"/></mxCell><mxCell id="eucJpfDko_vi7RkiYYHx-17" style="edgeStyle=orthogonalEdgeStyle;rounded=1;orthogonalLoop=1;jettySize=auto;html=1;strokeColor=#FFFFFF;" parent="1" source="q9bZN0hqR5tmcUif_ThB-1" target="q9bZN0hqR5tmcUif_ThB-11" edge="1"><mxGeometry relative="1" as="geometry"/></mxCell><mxCell id="eucJpfDko_vi7RkiYYHx-24" style="edgeStyle=orthogonalEdgeStyle;rounded=1;orthogonalLoop=1;jettySize=auto;html=1;strokeColor=#FFFFFF;" parent="1" source="q9bZN0hqR5tmcUif_ThB-1" target="eucJpfDko_vi7RkiYYHx-23" edge="1"><mxGeometry relative="1" as="geometry"/></mxCell><mxCell id="_8uC7frrzM7Oaj5s3-th-5" style="edgeStyle=orthogonalEdgeStyle;rounded=1;orthogonalLoop=1;jettySize=auto;html=1;strokeColor=#FFFFFF;" parent="1" source="q9bZN0hqR5tmcUif_ThB-1" target="_8uC7frrzM7Oaj5s3-th-4" edge="1"><mxGeometry relative="1" as="geometry"/></mxCell><mxCell id="q9bZN0hqR5tmcUif_ThB-1" value="type" style="rounded=1;whiteSpace=wrap;html=1;fillColor=#f8cecc;strokeColor=#b85450;gradientColor=#ea6b66;fontColor=#080808;" parent="1" vertex="1"><mxGeometry x="740" y="10" width="120" height="30" as="geometry"/></mxCell><mxCell id="q9bZN0hqR5tmcUif_ThB-2" value="pointer" style="rounded=1;whiteSpace=wrap;html=1;fillColor=#d5e8d4;strokeColor=#82b366;gradientColor=#97d077;fontColor=#080808;" parent="1" vertex="1"><mxGeometry x="440" y="50" width="120" height="30" as="geometry"/></mxCell><mxCell id="_8uC7frrzM7Oaj5s3-th-9" style="edgeStyle=orthogonalEdgeStyle;rounded=1;orthogonalLoop=1;jettySize=auto;html=1;strokeColor=#FFFFFF;" parent="1" source="q9bZN0hqR5tmcUif_ThB-11" target="_8uC7frrzM7Oaj5s3-th-8" edge="1"><mxGeometry relative="1" as="geometry"/></mxCell><mxCell id="_8uC7frrzM7Oaj5s3-th-11" style="edgeStyle=orthogonalEdgeStyle;rounded=1;orthogonalLoop=1;jettySize=auto;html=1;strokeColor=#FFFFFF;" parent="1" source="q9bZN0hqR5tmcUif_ThB-11" target="_8uC7frrzM7Oaj5s3-th-10" edge="1"><mxGeometry relative="1" as="geometry"/></mxCell><mxCell id="_8uC7frrzM7Oaj5s3-th-15" style="edgeStyle=orthogonalEdgeStyle;rounded=1;orthogonalLoop=1;jettySize=auto;html=1;strokeColor=#FFFFFF;" parent="1" source="q9bZN0hqR5tmcUif_ThB-11" target="_8uC7frrzM7Oaj5s3-th-13" edge="1"><mxGeometry relative="1" as="geometry"/></mxCell><mxCell id="q9bZN0hqR5tmcUif_ThB-11" value="struct" style="rounded=1;whiteSpace=wrap;html=1;fillColor=#d5e8d4;strokeColor=#82b366;gradientColor=#97d077;fontColor=#080808;" parent="1" vertex="1"><mxGeometry x="160" y="50" width="120" height="30" as="geometry"/></mxCell><mxCell id="eucJpfDko_vi7RkiYYHx-5" style="edgeStyle=orthogonalEdgeStyle;rounded=1;orthogonalLoop=1;jettySize=auto;html=1;strokeColor=#FFFFFF;" parent="1" source="4AstwILhhjHzBIvCOlqU-8" target="4AstwILhhjHzBIvCOlqU-30" edge="1"><mxGeometry relative="1" as="geometry"/></mxCell><mxCell id="eucJpfDko_vi7RkiYYHx-6" style="edgeStyle=orthogonalEdgeStyle;rounded=1;orthogonalLoop=1;jettySize=auto;html=1;strokeColor=#FFFFFF;" parent="1" source="4AstwILhhjHzBIvCOlqU-8" target="4AstwILhhjHzBIvCOlqU-28" edge="1"><mxGeometry relative="1" as="geometry"/></mxCell><mxCell id="4AstwILhhjHzBIvCOlqU-8" value="float" style="rounded=1;whiteSpace=wrap;html=1;fillColor=#dae8fc;strokeColor=#6c8ebf;gradientColor=#7ea6e0;fontColor=#080808;" parent="1" vertex="1"><mxGeometry x="520" y="170" width="120" height="30" as="geometry"/></mxCell><mxCell id="eucJpfDko_vi7RkiYYHx-11" style="edgeStyle=orthogonalEdgeStyle;rounded=1;orthogonalLoop=1;jettySize=auto;html=1;strokeColor=#FFFFFF;" parent="1" source="4AstwILhhjHzBIvCOlqU-12" target="4AstwILhhjHzBIvCOlqU-19" edge="1"><mxGeometry relative="1" as="geometry"/></mxCell><mxCell id="eucJpfDko_vi7RkiYYHx-12" style="edgeStyle=orthogonalEdgeStyle;rounded=1;orthogonalLoop=1;jettySize=auto;html=1;strokeColor=#FFFFFF;" parent="1" source="4AstwILhhjHzBIvCOlqU-12" target="4AstwILhhjHzBIvCOlqU-20" edge="1"><mxGeometry relative="1" as="geometry"/></mxCell><mxCell id="4AstwILhhjHzBIvCOlqU-12" value="int (Standard)" style="rounded=1;whiteSpace=wrap;html=1;fillColor=#dae8fc;strokeColor=#6c8ebf;gradientColor=#7ea6e0;fontColor=#080808;" parent="1" vertex="1"><mxGeometry x="740" y="220" width="120" height="30" as="geometry"/></mxCell><mxCell id="4AstwILhhjHzBIvCOlqU-17" value="byte" style="rounded=1;whiteSpace=wrap;html=1;fillColor=#dae8fc;strokeColor=#6c8ebf;gradientColor=#7ea6e0;fontColor=#080808;" parent="1" vertex="1"><mxGeometry x="910" y="170" width="120" height="30" as="geometry"/></mxCell><mxCell id="4AstwILhhjHzBIvCOlqU-19" value="int32" style="rounded=1;whiteSpace=wrap;html=1;fillColor=#dae8fc;strokeColor=#6c8ebf;gradientColor=#7ea6e0;fontColor=#080808;" parent="1" vertex="1"><mxGeometry x="680" y="320" width="120" height="30" as="geometry"/></mxCell><mxCell id="4AstwILhhjHzBIvCOlqU-20" value="int64 (Standard)" style="rounded=1;whiteSpace=wrap;html=1;fillColor=#dae8fc;strokeColor=#6c8ebf;gradientColor=#7ea6e0;fontColor=#080808;" parent="1" vertex="1"><mxGeometry x="800" y="320" width="120" height="30" as="geometry"/></mxCell><mxCell id="_8uC7frrzM7Oaj5s3-th-14" style="edgeStyle=orthogonalEdgeStyle;rounded=1;orthogonalLoop=1;jettySize=auto;html=1;strokeColor=#FFFFFF;" parent="1" source="4AstwILhhjHzBIvCOlqU-28" target="_8uC7frrzM7Oaj5s3-th-13" edge="1"><mxGeometry relative="1" as="geometry"/></mxCell><mxCell id="4AstwILhhjHzBIvCOlqU-28" value="float64 (Standard)" style="rounded=1;whiteSpace=wrap;html=1;fillColor=#dae8fc;strokeColor=#6c8ebf;gradientColor=#7ea6e0;fontColor=#080808;" parent="1" vertex="1"><mxGeometry x="460" y="250" width="120" height="30" as="geometry"/></mxCell><mxCell id="4AstwILhhjHzBIvCOlqU-30" value="float32" style="rounded=1;whiteSpace=wrap;html=1;fillColor=#dae8fc;strokeColor=#6c8ebf;gradientColor=#7ea6e0;fontColor=#080808;" parent="1" vertex="1"><mxGeometry x="580" y="250" width="120" height="30" as="geometry"/></mxCell><mxCell id="4AstwILhhjHzBIvCOlqU-37" value="string" style="rounded=1;whiteSpace=wrap;html=1;fillColor=#dae8fc;strokeColor=#6c8ebf;gradientColor=#7ea6e0;fontColor=#080808;" parent="1" vertex="1"><mxGeometry x="1070" y="300" width="120" height="30" as="geometry"/></mxCell><mxCell id="eucJpfDko_vi7RkiYYHx-14" style="edgeStyle=orthogonalEdgeStyle;rounded=1;orthogonalLoop=1;jettySize=auto;html=1;strokeColor=#FFFFFF;" parent="1" source="eucJpfDko_vi7RkiYYHx-4" target="4AstwILhhjHzBIvCOlqU-37" edge="1"><mxGeometry relative="1" as="geometry"/></mxCell><mxCell id="4" style="edgeStyle=orthogonalEdgeStyle;rounded=1;orthogonalLoop=1;jettySize=auto;html=1;strokeWidth=1;sketch=0;" edge="1" parent="1" source="eucJpfDko_vi7RkiYYHx-4" target="3"><mxGeometry relative="1" as="geometry"/></mxCell><mxCell id="eucJpfDko_vi7RkiYYHx-4" value="array" style="rounded=1;whiteSpace=wrap;html=1;fillColor=#d5e8d4;strokeColor=#82b366;gradientColor=#97d077;fontColor=#080808;" parent="1" vertex="1"><mxGeometry x="1200" y="50" width="120" height="30" as="geometry"/></mxCell><mxCell id="eucJpfDko_vi7RkiYYHx-20" style="edgeStyle=orthogonalEdgeStyle;rounded=1;orthogonalLoop=1;jettySize=auto;html=1;strokeColor=#FFFFFF;" parent="1" source="eucJpfDko_vi7RkiYYHx-18" target="4AstwILhhjHzBIvCOlqU-8" edge="1"><mxGeometry relative="1" as="geometry"/></mxCell><mxCell id="eucJpfDko_vi7RkiYYHx-21" style="edgeStyle=orthogonalEdgeStyle;rounded=1;orthogonalLoop=1;jettySize=auto;html=1;strokeColor=#FFFFFF;" parent="1" source="eucJpfDko_vi7RkiYYHx-18" target="4AstwILhhjHzBIvCOlqU-17" edge="1"><mxGeometry relative="1" as="geometry"/></mxCell><mxCell id="eucJpfDko_vi7RkiYYHx-22" style="edgeStyle=orthogonalEdgeStyle;rounded=1;orthogonalLoop=1;jettySize=auto;html=1;strokeColor=#FFFFFF;" parent="1" source="eucJpfDko_vi7RkiYYHx-18" target="4AstwILhhjHzBIvCOlqU-12" edge="1"><mxGeometry relative="1" as="geometry"/></mxCell><mxCell id="eucJpfDko_vi7RkiYYHx-18" value="number" style="rounded=1;whiteSpace=wrap;html=1;fillColor=#d5e8d4;strokeColor=#82b366;gradientColor=#97d077;fontColor=#080808;" parent="1" vertex="1"><mxGeometry x="740" y="120" width="120" height="30" as="geometry"/></mxCell><mxCell id="eucJpfDko_vi7RkiYYHx-23" value="function" style="rounded=1;whiteSpace=wrap;html=1;fillColor=#d5e8d4;strokeColor=#82b366;gradientColor=#97d077;fontColor=#080808;" parent="1" vertex="1"><mxGeometry x="1440" y="50" width="120" height="30" as="geometry"/></mxCell><mxCell id="_8uC7frrzM7Oaj5s3-th-7" style="edgeStyle=orthogonalEdgeStyle;rounded=1;orthogonalLoop=1;jettySize=auto;html=1;strokeColor=#FFFFFF;" parent="1" source="_8uC7frrzM7Oaj5s3-th-4" target="_8uC7frrzM7Oaj5s3-th-6" edge="1"><mxGeometry relative="1" as="geometry"/></mxCell><mxCell id="11" style="edgeStyle=orthogonalEdgeStyle;rounded=1;sketch=0;orthogonalLoop=1;jettySize=auto;html=1;strokeWidth=1;" edge="1" parent="1" source="_8uC7frrzM7Oaj5s3-th-4" target="eucJpfDko_vi7RkiYYHx-18"><mxGeometry relative="1" as="geometry"/></mxCell><mxCell id="14" value="" style="edgeStyle=orthogonalEdgeStyle;rounded=1;sketch=0;orthogonalLoop=1;jettySize=auto;html=1;strokeWidth=1;" edge="1" parent="1" source="_8uC7frrzM7Oaj5s3-th-4" target="eucJpfDko_vi7RkiYYHx-18"><mxGeometry relative="1" as="geometry"/></mxCell><mxCell id="_8uC7frrzM7Oaj5s3-th-4" value="variable" style="rounded=1;whiteSpace=wrap;html=1;fillColor=#d5e8d4;strokeColor=#82b366;gradientColor=#97d077;fontColor=#080808;" parent="1" vertex="1"><mxGeometry x="740" y="60" width="120" height="30" as="geometry"/></mxCell><mxCell id="12" style="edgeStyle=orthogonalEdgeStyle;rounded=1;sketch=0;orthogonalLoop=1;jettySize=auto;html=1;strokeWidth=1;" edge="1" parent="1" source="_8uC7frrzM7Oaj5s3-th-6" target="eucJpfDko_vi7RkiYYHx-18"><mxGeometry relative="1" as="geometry"><Array as="points"><mxPoint x="970" y="100"/><mxPoint x="800" y="100"/></Array></mxGeometry></mxCell><mxCell id="_8uC7frrzM7Oaj5s3-th-6" value="constant" style="rounded=1;whiteSpace=wrap;html=1;fillColor=#d5e8d4;strokeColor=#82b366;gradientColor=#97d077;fontColor=#080808;" parent="1" vertex="1"><mxGeometry x="920" y="60" width="120" height="30" as="geometry"/></mxCell><mxCell id="_8uC7frrzM7Oaj5s3-th-8" value="linked list" style="rounded=1;whiteSpace=wrap;html=1;fillColor=#d5e8d4;strokeColor=#82b366;gradientColor=#97d077;fontColor=#080808;" parent="1" vertex="1"><mxGeometry x="40" y="130" width="120" height="30" as="geometry"/></mxCell><mxCell id="_8uC7frrzM7Oaj5s3-th-10" value="array list" style="rounded=1;whiteSpace=wrap;html=1;fillColor=#d5e8d4;strokeColor=#82b366;gradientColor=#97d077;fontColor=#080808;" parent="1" vertex="1"><mxGeometry x="280" y="130" width="120" height="30" as="geometry"/></mxCell><mxCell id="_8uC7frrzM7Oaj5s3-th-13" value="complex" style="rounded=1;whiteSpace=wrap;html=1;fillColor=#dae8fc;strokeColor=#6c8ebf;gradientColor=#7ea6e0;fontColor=#080808;" parent="1" vertex="1"><mxGeometry x="280" y="320" width="120" height="30" as="geometry"/></mxCell><mxCell id="8" style="edgeStyle=orthogonalEdgeStyle;rounded=1;sketch=0;orthogonalLoop=1;jettySize=auto;html=1;strokeWidth=1;dashed=1;" edge="1" parent="1" source="3" target="7"><mxGeometry relative="1" as="geometry"/></mxCell><mxCell id="3" value="(alle anderen Typen)" style="rounded=1;whiteSpace=wrap;html=1;fillColor=#dae8fc;strokeColor=#6c8ebf;gradientColor=#7ea6e0;fontColor=#080808;" vertex="1" parent="1"><mxGeometry x="1260" y="130" width="120" height="30" as="geometry"/></mxCell><mxCell id="9" style="edgeStyle=orthogonalEdgeStyle;rounded=1;sketch=0;orthogonalLoop=1;jettySize=auto;html=1;strokeWidth=1;" edge="1" parent="1" source="7" target="4AstwILhhjHzBIvCOlqU-37"><mxGeometry relative="1" as="geometry"/></mxCell><mxCell id="7" value="byte" style="rounded=1;whiteSpace=wrap;html=1;fillColor=#dae8fc;strokeColor=#6c8ebf;gradientColor=#7ea6e0;fontColor=#080808;" vertex="1" parent="1"><mxGeometry x="1260" y="200" width="120" height="30" as="geometry"/></mxCell></root></mxGraphModel></diagram></mxfile>